<svg xmlns="http://www.w3.org/2000/svg" style="display:none"><symbol id="icon-example"><path d="M172.142 79.47a81.698 81.698 0 0 0-2.427-4.442c-.879-1.5-1.888-2.767-3.027-3.803-.353.39-.8.933-1.342 1.628a49.242 49.242 0 0 0-1.626 2.214 30.69 30.69 0 0 0-1.522 2.43 38 38 0 0 0-1.054 1.973h-6.741a68.548 68.548 0 0 1 3.911-6.348 198.42 198.42 0 0 1 5.031-6.951l-8.563-12.947h7.157l5.002 7.6 5.11-7.6h6.742l-8.518 12.668c2.233 2.798 4.073 5.363 5.516 7.695 1.444 2.332 2.584 4.293 3.418 5.883h-7.067zm-38.607-13.142c0 1.288.158 2.45.474 3.484.315 1.036.77 1.926 1.363 2.67a6.027 6.027 0 0 0 2.178 1.724c.858.404 1.842.605 2.954.605 1.085 0 2.064-.201 2.935-.605a5.989 5.989 0 0 0 2.196-1.724c.593-.744 1.048-1.634 1.364-2.67.315-1.035.473-2.196.473-3.484 0-1.288-.158-2.455-.473-3.503-.316-1.047-.77-1.944-1.364-2.69a6 6 0 0 0-2.196-1.722c-.871-.404-1.85-.606-2.935-.606-1.112 0-2.096.208-2.954.625a6.227 6.227 0 0 0-2.178 1.742c-.594.745-1.048 1.641-1.363 2.689-.316 1.048-.474 2.203-.474 3.465zm20.035 0c0 2.248-.335 4.223-1.004 5.927-.67 1.705-1.585 3.131-2.746 4.28-1.161 1.15-2.544 2.013-4.147 2.594-1.603.58-3.327.871-5.17.871-1.793 0-3.483-.29-5.074-.87a11.659 11.659 0 0 1-4.166-2.595c-1.187-1.149-2.121-2.575-2.803-4.28-.682-1.704-1.022-3.68-1.022-5.927 0-2.247.353-4.223 1.06-5.927.707-1.704 1.66-3.137 2.86-4.298a11.764 11.764 0 0 1 4.165-2.614c1.578-.58 3.238-.87 4.98-.87 1.793 0 3.485.29 5.076.87a11.55 11.55 0 0 1 4.165 2.614c1.187 1.161 2.122 2.594 2.803 4.298.682 1.704 1.023 3.68 1.023 5.927zm-44.69 1.704v6.78c.43.05.896.088 1.401.113.505.025 1.061.038 1.667.038 1.767 0 3.194-.252 4.28-.757 1.085-.505 1.628-1.44 1.628-2.803 0-1.212-.454-2.077-1.363-2.594-.91-.517-2.21-.777-3.901-.777h-3.712zm0-4.507h2.879c1.817 0 3.118-.233 3.9-.7.782-.467 1.174-1.218 1.174-2.253 0-1.06-.404-1.805-1.212-2.235-.808-.429-1.994-.644-3.56-.644-.505 0-1.047.007-1.628.02-.581.012-1.098.043-1.553.094v5.718zm2.992 16.286c-1.439 0-2.872-.045-4.298-.133a30.387 30.387 0 0 1-4.45-.625v-25.45a37.788 37.788 0 0 1 3.976-.511c1.44-.114 2.777-.171 4.015-.171 1.666 0 3.2.12 4.601.36 1.402.24 2.607.65 3.617 1.23 1.01.582 1.8 1.345 2.367 2.292.568.947.852 2.115.852 3.503 0 2.096-1.01 3.75-3.03 4.962 1.667.631 2.803 1.49 3.41 2.575.605 1.086.908 2.31.908 3.674 0 2.752-1.004 4.822-3.011 6.21-2.007 1.39-4.993 2.084-8.957 2.084zm85.364-37.816v5.075h-17.535V20.825h5.908v21.17h11.627zm-42.492-8.066c0 1.287.157 2.449.473 3.484.316 1.035.77 1.926 1.363 2.67a6.027 6.027 0 0 0 2.178 1.723c.858.404 1.843.606 2.954.606 1.085 0 2.064-.202 2.935-.606a5.989 5.989 0 0 0 2.197-1.723c.593-.744 1.047-1.635 1.363-2.67.316-1.035.474-2.197.474-3.484 0-1.288-.158-2.456-.474-3.504-.316-1.047-.77-1.944-1.363-2.689a5.998 5.998 0 0 0-2.197-1.723c-.87-.403-1.85-.606-2.935-.606-1.111 0-2.096.209-2.954.625a6.227 6.227 0 0 0-2.178 1.742c-.593.745-1.047 1.642-1.363 2.69-.316 1.047-.473 2.202-.473 3.465zm20.034 0c0 2.247-.335 4.222-1.003 5.927-.67 1.704-1.585 3.13-2.746 4.28-1.162 1.148-2.544 2.013-4.147 2.593-1.604.58-3.327.871-5.17.871-1.793 0-3.484-.29-5.075-.87a11.659 11.659 0 0 1-4.165-2.595c-1.188-1.148-2.121-2.575-2.803-4.28-.682-1.704-1.023-3.679-1.023-5.926 0-2.247.353-4.223 1.06-5.928.707-1.704 1.66-3.136 2.86-4.298a11.764 11.764 0 0 1 4.166-2.613 14.308 14.308 0 0 1 4.98-.871c1.793 0 3.484.29 5.075.87a11.548 11.548 0 0 1 4.166 2.614c1.186 1.162 2.121 2.594 2.803 4.298.681 1.705 1.022 3.68 1.022 5.928zm-49.953 0c0 1.287.157 2.449.473 3.484.316 1.035.77 1.926 1.363 2.67a6.028 6.028 0 0 0 2.178 1.723c.858.404 1.843.606 2.954.606 1.086 0 2.064-.202 2.935-.606a5.99 5.99 0 0 0 2.197-1.723c.593-.744 1.047-1.635 1.363-2.67.316-1.035.474-2.197.474-3.484 0-1.288-.158-2.456-.474-3.504-.316-1.047-.77-1.944-1.363-2.689a6 6 0 0 0-2.197-1.723c-.87-.403-1.85-.606-2.935-.606-1.11 0-2.096.209-2.954.625a6.228 6.228 0 0 0-2.178 1.742c-.593.745-1.047 1.642-1.363 2.69-.316 1.047-.473 2.202-.473 3.465zm20.034 0c0 2.247-.335 4.222-1.003 5.927-.67 1.704-1.585 3.13-2.746 4.28-1.162 1.148-2.544 2.013-4.147 2.593-1.604.58-3.327.871-5.17.871-1.793 0-3.484-.29-5.075-.87a11.659 11.659 0 0 1-4.166-2.595c-1.187-1.148-2.12-2.575-2.802-4.28-.682-1.704-1.023-3.679-1.023-5.926 0-2.247.354-4.223 1.06-5.928.707-1.704 1.66-3.136 2.86-4.298a11.76 11.76 0 0 1 4.166-2.613 14.307 14.307 0 0 1 4.98-.871c1.793 0 3.484.29 5.075.87a11.55 11.55 0 0 1 4.166 2.614c1.186 1.162 2.12 2.594 2.803 4.298.681 1.705 1.022 3.68 1.022 5.928zm-27.912-13.104v5.037h-7.915V47.07h-5.908V25.862h-7.916v-5.037h21.74zM15.945 66.36a1.918 1.918 0 1 1-3.837 0 1.918 1.918 0 0 1 3.837 0zm50.071 3.914l-.456 2.906 1.95-2.202-1.494-.704zm4.775-10.605l-.583 1.237 1.857.875.582-1.238-1.856-.874zm.982 2.731l-3.79 8.044-1.856-.874 3.79-8.045 1.856.875zm1.418 9.226V69.29l4.055-2.298-4.055-2.297v-2.318l6.652 3.876v1.479l-6.652 3.895zm-15.199-3.895v-1.479l6.652-3.876v2.318l-4.055 2.297 4.055 2.298v2.337l-6.652-3.895zm19.952 8.373H12.689c-2.47 0-4.815-1.034-6.603-2.911-1.708-1.794-2.688-4.119-2.688-6.38 0-.287.01-.576.029-.865.266-4.115 2.473-8.235 7.86-9.143.714-.12 1.48-.188 2.308-.188H77.038c1.716 0 3.274.296 4.627.845 2.042.828 3.614 2.236 4.56 4.072.654 1.269 1.01 2.741 1.01 4.373 0 6.298-4.823 10.197-9.291 10.197zM26.188 41.14l3.377 3.217-8.43 8.863h-6.437l11.49-12.08zm6.554-9.686l6.944-2.45 1.342 1.28-2.108 7.055-6.79 4.767-3.82-3.64 4.432-7.012zm23.726-7.383c1.048-.133 2.09-.4 3.098-.807a11.835 11.835 0 0 0 3.818-2.494l16.267 32.65c-.836-.13-1.707-.2-2.613-.2H68.11L56.468 24.07zm-5.67-4.344a8.667 8.667 0 0 1-4.39-5.98 8.648 8.648 0 0 1 .414-4.765l2.684 5.501c.25.511.738.864 1.301.94l.863.115a8.388 8.388 0 0 0 8.423-4.149l.432-.808a1.7 1.7 0 0 0 .026-1.547l-2.476-5.057c3.191 1.233 5.463 4.306 5.557 7.968.091 3.502-2.104 6.861-5.34 8.168-2.507 1.013-5.17.877-7.494-.386zm33.387 35.174L65.66 17.717a11.953 11.953 0 0 0 1.37-5.86C66.86 5.282 61.614.074 55.086 0h-.02a1.7 1.7 0 0 0-1.525 2.446l3.575 7.302-.005.01a5 5 0 0 1-4.95 2.417l-3.66-7.499a1.699 1.699 0 0 0-2.83-.345 12.041 12.041 0 0 0-2.599 10.065 12.055 12.055 0 0 0 6.103 8.318 12.014 12.014 0 0 0 3.595 1.263l11.68 29.243H25.825l7.255-7.628 8.276-5.811a1.7 1.7 0 0 0 .651-.904l2.575-8.62a1.699 1.699 0 0 0-.456-1.716l-2.85-2.715a1.699 1.699 0 0 0-1.737-.372l-8.484 2.99c-.36.128-.667.373-.871.696l-5.401 8.546-15.23 16.011C3.187 55.298 0 60.737 0 66.814c0 6.345 5.438 12.689 12.689 12.689h65.255c6.344 0 12.689-5.438 12.689-13.595 0-4.834-2.42-8.86-6.448-11.007z" fill="#161821" fill-rule="evenodd"/></symbol></svg>